<svg width="1766" height="685" viewBox="0 0 1766 685" fill="none" xmlns="http://www.w3.org/2000/svg">
<path d="M703.938 48.8984C930.818 104.403 856.446 256.031 1027 256.031C1205.98 256.031 1175.21 120.591 1403 48.8984C1504.27 17.0247 1662.85 0.763336 1685.12 48.8984C1803.91 305.647 1776.2 508.895 1685.12 658.667C1651.64 713.72 1582.56 468.877 1436 458.547C1302.5 449.137 1343.39 591.249 1125 619.188C715.551 671.569 370.034 733.713 180.324 619.188C-102.303 448.569 -10.4897 256.722 180.324 48.8984C251.317 -28.4227 507.48 0.83651 703.938 48.8984Z" stroke="#8DBAFF" stroke-width="2" stroke-linecap="round" stroke-dasharray="10"/>
<circle cx="1032" cy="256" r="6" fill="#ED7171"/>
<circle cx="1422" cy="458" r="6" fill="#A3C8FF"/>
</svg>
